<mxfile host="app.diagrams.net" modified="2024-01-16T09:47:45.974Z" agent="Mozilla/5.0 (Windows NT 10.0; Win64; x64) AppleWebKit/537.36 (KHTML, like Gecko) Chrome/120.0.0.0 Safari/537.36 Edg/120.0.0.0" etag="7sWWTqDBJaop9xINvJcj" version="22.1.18" type="github">
  <diagram name="第 1 页" id="5V8VyhHseoGHD0zVhbOg">
    <mxGraphModel dx="1181" dy="661" grid="1" gridSize="10" guides="1" tooltips="1" connect="1" arrows="1" fold="1" page="1" pageScale="1" pageWidth="827" pageHeight="1169" math="0" shadow="0">
      <root>
        <mxCell id="0" />
        <mxCell id="1" parent="0" />
        <mxCell id="7JiSYU3RyPmA38J1bO-Y-3" value="" style="edgeStyle=orthogonalEdgeStyle;rounded=0;orthogonalLoop=1;jettySize=auto;html=1;" edge="1" parent="1" source="7JiSYU3RyPmA38J1bO-Y-1" target="7JiSYU3RyPmA38J1bO-Y-2">
          <mxGeometry relative="1" as="geometry" />
        </mxCell>
        <mxCell id="7JiSYU3RyPmA38J1bO-Y-1" value="Data" style="ellipse;whiteSpace=wrap;html=1;" vertex="1" parent="1">
          <mxGeometry x="10" y="380" width="50" height="30" as="geometry" />
        </mxCell>
        <mxCell id="7JiSYU3RyPmA38J1bO-Y-7" value="" style="edgeStyle=orthogonalEdgeStyle;rounded=0;orthogonalLoop=1;jettySize=auto;html=1;" edge="1" parent="1" source="7JiSYU3RyPmA38J1bO-Y-2" target="7JiSYU3RyPmA38J1bO-Y-6">
          <mxGeometry relative="1" as="geometry" />
        </mxCell>
        <mxCell id="7JiSYU3RyPmA38J1bO-Y-2" value="Data Analysis" style="whiteSpace=wrap;html=1;" vertex="1" parent="1">
          <mxGeometry x="90" y="377.5" width="65" height="35" as="geometry" />
        </mxCell>
        <mxCell id="7JiSYU3RyPmA38J1bO-Y-4" value="" style="whiteSpace=wrap;html=1;fillColor=none;" vertex="1" parent="1">
          <mxGeometry x="180" y="310" width="470" height="260" as="geometry" />
        </mxCell>
        <mxCell id="7JiSYU3RyPmA38J1bO-Y-17" value="" style="edgeStyle=orthogonalEdgeStyle;rounded=0;orthogonalLoop=1;jettySize=auto;html=1;" edge="1" parent="1" source="7JiSYU3RyPmA38J1bO-Y-6" target="7JiSYU3RyPmA38J1bO-Y-16">
          <mxGeometry relative="1" as="geometry" />
        </mxCell>
        <mxCell id="7JiSYU3RyPmA38J1bO-Y-6" value="" style="whiteSpace=wrap;html=1;" vertex="1" parent="1">
          <mxGeometry x="197.5" y="345" width="100" height="100" as="geometry" />
        </mxCell>
        <mxCell id="7JiSYU3RyPmA38J1bO-Y-11" value="Time Syschronization&lt;br style=&quot;border-color: var(--border-color);&quot;&gt;Geometry Syschronization" style="rounded=1;whiteSpace=wrap;html=1;" vertex="1" parent="1">
          <mxGeometry x="202.5" y="380" width="90" height="60" as="geometry" />
        </mxCell>
        <mxCell id="7JiSYU3RyPmA38J1bO-Y-16" value="" style="whiteSpace=wrap;html=1;" vertex="1" parent="1">
          <mxGeometry x="351.78" y="333.44" width="124.44" height="123.12" as="geometry" />
        </mxCell>
        <mxCell id="7JiSYU3RyPmA38J1bO-Y-20" value="pipline" style="text;html=1;align=center;verticalAlign=middle;resizable=0;points=[];autosize=1;strokeColor=none;fillColor=none;" vertex="1" parent="1">
          <mxGeometry x="384" y="303.44" width="60" height="30" as="geometry" />
        </mxCell>
        <mxCell id="7JiSYU3RyPmA38J1bO-Y-23" value="pre-process" style="text;html=1;align=center;verticalAlign=middle;resizable=0;points=[];autosize=1;strokeColor=none;fillColor=none;" vertex="1" parent="1">
          <mxGeometry x="202.5" y="343.75" width="90" height="30" as="geometry" />
        </mxCell>
        <mxCell id="7JiSYU3RyPmA38J1bO-Y-24" value="frame-based&amp;nbsp;&lt;span style=&quot;&quot;&gt;process&lt;/span&gt;" style="text;html=1;align=center;verticalAlign=middle;resizable=0;points=[];autosize=1;strokeColor=none;fillColor=none;" vertex="1" parent="1">
          <mxGeometry x="344" y="333.44" width="140" height="30" as="geometry" />
        </mxCell>
        <mxCell id="7JiSYU3RyPmA38J1bO-Y-25" value="Segementation" style="rounded=1;whiteSpace=wrap;html=1;" vertex="1" parent="1">
          <mxGeometry x="366.5" y="360.31" width="95" height="26.25" as="geometry" />
        </mxCell>
        <mxCell id="7JiSYU3RyPmA38J1bO-Y-27" value="Clustering" style="rounded=1;whiteSpace=wrap;html=1;" vertex="1" parent="1">
          <mxGeometry x="366.5" y="392.81" width="95" height="26.25" as="geometry" />
        </mxCell>
        <mxCell id="7JiSYU3RyPmA38J1bO-Y-28" value="Classification" style="rounded=1;whiteSpace=wrap;html=1;" vertex="1" parent="1">
          <mxGeometry x="366.5" y="425.31" width="95" height="26.25" as="geometry" />
        </mxCell>
      </root>
    </mxGraphModel>
  </diagram>
</mxfile>
